<?xml version="1.0" encoding="utf-8"?>
<!-- Generator: Adobe Illustrator 19.2.1, SVG Export Plug-In . SVG Version: 6.00 Build 0)  -->
<svg version="1.1" id="Layer_1" xmlns="http://www.w3.org/2000/svg" xmlns:xlink="http://www.w3.org/1999/xlink" x="0px" y="0px"
	 viewBox="0 0 576 126.9" style="enable-background:new 0 0 576 126.9;" xml:space="preserve">
<style type="text/css">
	.st0{fill:#FFFFFF;}
</style>
<g>
	<path class="st0" d="M69.6,0l-51,7.1L0,39.3l52.9,49.2l42.6-60.7L69.6,0z M49.9,16.3l-15.1,1.9l0-7L50,9.1L49.9,16.3z M34.9,24.7
		l15-1.9l-0.1,7L34.9,32L34.9,24.7z M49.8,36.2l-0.1,7.2L35,45.3l0-6.9L49.8,36.2z M35,51.7l14.6-1.9l-0.1,7l-14.5,1.9L35,51.7z
		 M28.7,57.3L12,41.8l16.6-2.5L28.7,57.3z M49.5,63.2l-0.1,13.4L36.8,64.8L49.5,63.2z M56.1,35.3l29.5-4.4L55.8,73.4L56.1,35.3z
		 M84.1,24.7l-27.9,4.2l0.2-20.7l10.9-1.5L84.1,24.7z M22.5,12.9l6-0.8L28.6,33L9.2,35.9L22.5,12.9z"/>
	<g>
		<path class="st0" d="M117.6,39.9c4.8-1.1,12.1-1.7,18.8-1.7c18,0,28.8,5.9,28.8,21c0,9.3-4,15.4-10.2,18.7l15,24.3
			c-1.2,0.8-3.7,1.3-7.2,1.3c-4,0-6.6-0.4-8.5-1.3l-12.5-21h-1.4c-3.1,0-7.1-0.3-9.3-0.6v21.8c-1.3,0.7-3.5,1.2-6.7,1.2
			c-3.1,0-5.5-0.4-6.8-1.2V39.9z M131.1,50.3v18.8c1.8,0.4,5.1,0.6,7.7,0.6c7.8,0,12.6-2.8,12.6-9.8c0-7.2-5-10.2-14-10.2
			C135.3,49.8,133.1,50,131.1,50.3z"/>
		<path class="st0" d="M200.2,98.4c-2,4-6.2,6.5-12.4,6.5c-7.9,0-14.8-4-14.8-14.4c0-11,7.9-15.2,18.4-15.2c3,0,5.6,0.4,8.2,1.2
			v-1.3c0-5.5-2.7-7.5-8.6-7.5c-5.2,0-10.3,1.4-14.4,3.8c-1.1-3.5-0.6-9.1,1.4-12.1c3.2-1.8,8.8-3,15.5-3c13,0,19.2,4.6,19.2,17.9
			V90c0,2.8,1.3,3.4,3.1,3.4c1.5,0,3-0.5,3.9-1.1c0.4,3.6-0.7,8-2.3,10.5c-1.9,1.3-4.4,2.1-7.5,2.1c-5.2,0-7.9-2.2-8.8-6.5H200.2z
			 M199.8,85.1c-1.8-0.7-3.8-1.1-5.9-1.1c-5.2,0-7.8,2.2-7.8,5.6c0,3.5,2.6,4.8,6.2,4.8c2.9,0,5.8-0.9,7.6-3.1V85.1z"/>
		<path class="st0" d="M240.9,42.8c0,5.3-3.2,8.2-7.8,8.2c-5.1,0-7.9-2.8-7.9-8.1c0-4.9,3.3-7.8,7.9-7.8
			C237.8,35,240.9,37.8,240.9,42.8z M226.5,59c1.3-0.6,3.4-1.1,6.6-1.1s5.3,0.4,6.5,1.1v43.4c-1.2,0.6-3.3,1.1-6.5,1.1
			s-5.3-0.4-6.6-1.1V59z"/>
		<path class="st0" d="M262,104.9c-9,0-11.7-5.8-11.7-13.9V38.6c3.1-1.7,7.3-2.6,13-2.6v52.9c0,3.4,1.2,4.3,3.8,4.3
			c2.1,0,3.9-0.5,5.5-1.6c0.4,3.8-0.8,8.6-2.5,11.2C268,104.1,265.3,104.9,262,104.9z"/>
		<path class="st0" d="M292.2,94.8c4.6,0,6.4-1.4,6.4-4.1c0-7.1-20.5-3.6-20.5-19.6c0-9.2,5.8-14.6,16.7-14.6
			c4.5,0,9.3,0.9,12.8,3.1c1.6,2.6,2.6,7.6,2.2,11.1c-4-2.5-9.1-4.1-13.5-4.1c-3.9,0-5,1.3-5,3.4c0,6.7,20.6,3.3,20.6,19.3
			c0,11.5-8,15.7-19.2,15.7c-4.7,0-9.8-0.7-13.7-2.5c-1.9-3.1-2.6-8.5-2-11.6C280.7,93.1,287.3,94.8,292.2,94.8z"/>
		<path class="st0" d="M358.5,69.7c7.5,2.1,12.2,6.3,12.2,15.1c0,14-12.2,19.1-27.8,19.1c-7.8,0-16.5-0.4-22.3-1.1V40
			c5.6-1.1,12.7-1.9,20.1-1.9c15.5,0,26.6,4.8,26.6,17.5c0,7-3.5,12-8.9,13.5V69.7z M334,64.7h9c6.7,0,10.6-2.4,10.6-7.5
			c0-5.5-4.7-7.8-12.5-7.8c-2.9,0-5.2,0.2-7.1,0.5V64.7z M334,92.1c2.4,0.3,5.5,0.5,8.9,0.5c8.7,0,13.9-2.5,13.9-8.3
			s-5.2-8.3-13.7-8.3H334V92.1z"/>
		<path class="st0" d="M401.4,56.5c1.7,0,3.1,0.3,4.2,0.8c1.3,2.2,1.9,4.8,1.9,8.2c0,2.6-0.4,4.2-0.8,5.5c-1.7-1-3.4-1.5-6.2-1.5
			c-4.6,0-8,3.1-9.7,7.8v25.1c-1.2,0.6-3.3,1.1-6.5,1.1c-3.2,0-5.3-0.4-6.6-1.1V59.5c2.4-1.4,6.2-2.1,10.5-2.1l0.9,8.3h0.7
			C391.1,60.7,394,56.5,401.4,56.5z"/>
		<path class="st0" d="M427.2,42.8c0,5.3-3.2,8.2-7.8,8.2c-5.1,0-7.9-2.8-7.9-8.1c0-4.9,3.3-7.8,7.9-7.8
			C424.1,35,427.2,37.8,427.2,42.8z M412.8,59c1.3-0.6,3.4-1.1,6.6-1.1c3.1,0,5.3,0.4,6.5,1.1v43.4c-1.2,0.6-3.3,1.1-6.5,1.1
			c-3.1,0-5.3-0.4-6.6-1.1V59z"/>
		<path class="st0" d="M464.6,38.6c3.1-1.7,7.3-2.6,13-2.6v65.9c-2.4,1.4-6,2.1-9.7,2.1l-1.7-6.2h-0.7c-2.3,4.7-7.6,7.1-13.6,7.1
			c-12.1,0-17.9-9.1-17.9-22.5c0-16.5,8.6-25.9,22.2-25.9c3.2,0,6.2,0.5,8.4,1.6V38.6z M464.7,69c-1.5-0.8-3.6-1.2-5.7-1.2
			c-8.1,0-11.7,5.5-11.7,13.7c0,7.9,3.2,11.6,9.2,11.6c4,0,6.4-1.8,8.2-3.3V69z"/>
		<path class="st0" d="M492.2,86.6c-4.2-2.7-5.8-7.7-5.8-13.2c0-11.2,8.2-16.8,19.5-16.8c4,0,7.4,0.7,10,1.8h13
			c1.2,2.7,1.6,6.3,1.6,9.5h-6.5v0.5c0.8,0.8,1.3,3,1.3,5.6c0,10.3-7.3,16.3-19.2,16.3c-2.1,0-4.1-0.4-5-0.7c-1,0.6-1.5,1.9-1.5,3
			c0,2.5,3.1,3.1,9,3.1c12.9,0,22,2.5,22,14.4c0,12.1-9.4,17-24.5,17c-13.7,0-22.4-3.9-22.4-14.4c0-5.4,2.9-9.3,6.9-10.3v-0.6
			c-2.5-1.3-3.7-3.7-3.7-6.7c0-4,2.2-6.8,5.2-7.6V86.6z M498.9,105.1c-2,1.2-3.1,3.1-3.1,5.4c0,4.9,4.9,6.3,11.3,6.3
			c7.2,0,11.2-1.9,11.2-6.2c0-3.3-2.4-4.7-11.8-4.7C503.3,105.9,501,105.7,498.9,105.1z M505.9,80.6c4.9,0,7.5-2.8,7.5-7.3
			c0-4.6-2.6-7.3-7.5-7.3c-5,0-7.6,2.8-7.6,7.3C498.3,77.9,500.8,80.6,505.9,80.6z"/>
		<path class="st0" d="M547.3,84.9c0.5,6.3,5,9.4,13.9,9.4c5.8,0,10.8-1.3,14-2.7c0.3,3.4-1.2,7.8-3.2,10.2c-3,1.7-8,3.1-14.2,3.1
			c-15.7,0-24.1-9.1-24.1-23.7c0-15,9-24.7,23.1-24.7c13.1,0,19.2,8.1,19.2,20c0,2.9-0.5,6.1-1.4,8.5H547.3z M563.8,75.5
			c0.7-4.7-1-9.3-7.5-9.3c-5.6,0-9,3.6-9.4,9.3H563.8z"/>
	</g>
</g>
</svg>
